<svg width="36" height="24" viewBox="0 0 36 24" fill="none" xmlns="http://www.w3.org/2000/svg">
<path d="M35.3792 24H0.620718C0.277945 24 0 23.7172 0 23.3684V0.631607C0 0.282821 0.277945 0 0.620718 0H35.3793C35.7221 0 36 0.282821 36 0.631607V23.3684C35.9999 23.7173 35.722 24 35.3792 24Z" fill="#F5F5F5"/>
<path d="M35.9999 1.84624H0V0.631607C0 0.28282 0.277945 0 0.620718 0H35.3793C35.7221 0 36 0.28282 36 0.631607L35.9999 1.84624Z" fill="#FF4B55"/>
<path d="M35.9999 7.38461H0V9.23078H35.9999V7.38461Z" fill="#FF4B55"/>
<path d="M35.9999 3.69214H0V5.53831H35.9999V3.69214Z" fill="#FF4B55"/>
<path d="M35.9999 12.9231H0.620718C0.277945 12.9231 0 12.6403 0 12.2915V11.0769H35.9999V12.9231Z" fill="#FF4B55"/>
<path d="M35.9999 18.4621H0V20.3082H35.9999V18.4621Z" fill="#FF4B55"/>
<path d="M35.3792 24H0.620718C0.277945 24 0 23.7172 0 23.3684V22.1538H35.9999V23.3685C35.9999 23.7173 35.722 24 35.3792 24Z" fill="#FF4B55"/>
<path d="M35.9999 14.7696H0V16.6157H35.9999V14.7696Z" fill="#FF4B55"/>
<path d="M16.1379 6.10352e-05H0.620718C0.277945 6.10352e-05 0 0.28281 0 0.631596V12.2914C0 12.6402 0.277945 12.923 0.620718 12.923H16.138C16.4807 12.923 16.7587 12.6402 16.7587 12.2914V0.631596C16.7586 0.28281 16.4807 6.10352e-05 16.1379 6.10352e-05Z" fill="#41479B"/>
<path d="M1.74303 1.44975L1.88042 1.869L2.31474 1.87237C2.37099 1.87287 2.39427 1.94584 2.34906 1.97983L1.99967 2.2424L2.13074 2.66374C2.14775 2.71825 2.08665 2.76347 2.04088 2.73013L1.68756 2.47321L1.33424 2.7302C1.28846 2.76347 1.2275 2.71833 1.24438 2.66381L1.37544 2.24247L1.02606 1.9799C0.980848 1.94584 1.00412 1.87294 1.06037 1.87244L1.49469 1.86908L1.63208 1.44982C1.6498 1.39544 1.72517 1.39544 1.74303 1.44975Z" fill="#F5F5F5"/>
<path d="M1.74303 3.64281L1.88042 4.06207L2.31474 4.06543C2.37099 4.06593 2.39427 4.13891 2.34906 4.17289L1.99967 4.43546L2.13074 4.8568C2.14775 4.91132 2.08665 4.95653 2.04088 4.92319L1.68756 4.66627L1.33424 4.92326C1.28846 4.95653 1.2275 4.91139 1.24438 4.85687L1.37544 4.43554L1.02606 4.17296C0.980848 4.13891 1.00412 4.066 1.06037 4.0655L1.49469 4.06214L1.63208 3.64288C1.6498 3.58858 1.72517 3.58858 1.74303 3.64281Z" fill="#F5F5F5"/>
<path d="M1.74303 5.83595L1.88042 6.25521L2.31474 6.25858C2.37099 6.25908 2.39427 6.33205 2.34906 6.36604L1.99967 6.62861L2.13074 7.04995C2.14775 7.10446 2.08665 7.14968 2.04088 7.11634L1.68756 6.85942L1.33424 7.11641C1.28846 7.14968 1.2275 7.10454 1.24438 7.05002L1.37544 6.62868L1.02606 6.36611C0.980848 6.33205 1.00412 6.25915 1.06037 6.25865L1.49469 6.25528L1.63208 5.83602C1.6498 5.78172 1.72517 5.78172 1.74303 5.83595Z" fill="#F5F5F5"/>
<path d="M1.74303 8.02918L1.88042 8.44844L2.31474 8.45181C2.37099 8.45231 2.39427 8.52528 2.34906 8.55927L1.99967 8.82184L2.13074 9.24318C2.14775 9.29769 2.08665 9.34291 2.04088 9.30957L1.68756 9.05265L1.33424 9.30964C1.28846 9.34291 1.2275 9.29777 1.24438 9.24325L1.37544 8.82191L1.02606 8.55934C0.980848 8.52528 1.00412 8.45238 1.06037 8.45188L1.49469 8.44851L1.63208 8.02925C1.6498 7.97488 1.72517 7.97488 1.74303 8.02918Z" fill="#F5F5F5"/>
<path d="M1.74303 10.2224L1.88042 10.6416L2.31474 10.645C2.37099 10.6455 2.39427 10.7185 2.34906 10.7525L1.99967 11.015L2.13074 11.4364C2.14775 11.4909 2.08665 11.5361 2.04088 11.5028L1.68756 11.2458L1.33424 11.5028C1.28846 11.5361 1.2275 11.491 1.24438 11.4364L1.37544 11.0151L1.02606 10.7525C0.980848 10.7185 1.00412 10.6456 1.06037 10.6451L1.49469 10.6417L1.63208 10.2225C1.6498 10.168 1.72517 10.168 1.74303 10.2224Z" fill="#F5F5F5"/>
<path d="M3.41601 2.5249L3.5534 2.94416L3.98772 2.94752C4.04397 2.94802 4.06724 3.021 4.02203 3.05498L3.67265 3.31755L3.80371 3.73889C3.82072 3.7934 3.75962 3.83862 3.71385 3.80528L3.36053 3.54829L3.00721 3.80528C2.96144 3.83855 2.90048 3.7934 2.91735 3.73889L3.04841 3.31755L2.69903 3.05498C2.65382 3.02092 2.67709 2.94802 2.73334 2.94752L3.16766 2.94416L3.30505 2.5249C3.3227 2.47066 3.39822 2.47066 3.41601 2.5249Z" fill="#F5F5F5"/>
<path d="M3.41601 4.71816L3.5534 5.13741L3.98772 5.14078C4.04397 5.14128 4.06724 5.21425 4.02203 5.24824L3.67265 5.51081L3.80371 5.93214C3.82072 5.98666 3.75962 6.03188 3.71385 5.99854L3.36053 5.74155L3.00721 5.99854C2.96144 6.03181 2.90048 5.98673 2.91735 5.93214L3.04841 5.51081L2.69903 5.24824C2.65382 5.21418 2.67709 5.14128 2.73334 5.14078L3.16766 5.13741L3.30505 4.71816C3.3227 4.66385 3.39822 4.66385 3.41601 4.71816Z" fill="#F5F5F5"/>
<path d="M3.41601 6.9113L3.5534 7.33056L3.98772 7.33392C4.04397 7.33443 4.06724 7.4074 4.02203 7.44139L3.67265 7.70396L3.80371 8.12529C3.82072 8.17981 3.75962 8.22503 3.71385 8.19169L3.36053 7.9347L3.00721 8.19169C2.96144 8.22496 2.90048 8.17981 2.91735 8.12529L3.04841 7.70396L2.69903 7.44139C2.65382 7.40733 2.67709 7.33443 2.73334 7.33392L3.16766 7.33056L3.30505 6.9113C3.3227 6.857 3.39822 6.857 3.41601 6.9113Z" fill="#F5F5F5"/>
<path d="M3.41601 9.10449L3.5534 9.52375L3.98772 9.52711C4.04397 9.52761 4.06724 9.60059 4.02203 9.63457L3.67265 9.89714L3.80371 10.3185C3.82072 10.373 3.75962 10.4182 3.71385 10.3849L3.36053 10.1279L3.00721 10.3849C2.96144 10.4181 2.90048 10.373 2.91735 10.3185L3.04841 9.89714L2.69903 9.63457C2.65382 9.60051 2.67709 9.52761 2.73334 9.52711L3.16766 9.52375L3.30505 9.10449C3.3227 9.05025 3.39822 9.05025 3.41601 9.10449Z" fill="#F5F5F5"/>
<path d="M5.08898 1.44963L5.22637 1.86889L5.66069 1.87225C5.71694 1.87275 5.74021 1.94573 5.695 1.97971L5.34562 2.24229L5.47668 2.66362C5.4937 2.71814 5.4326 2.76336 5.38682 2.73002L5.0335 2.47302L4.68018 2.73002C4.63441 2.76328 4.57345 2.71814 4.59033 2.66362L4.72139 2.24229L4.37201 1.97971C4.32679 1.94566 4.35007 1.87275 4.40632 1.87225L4.84064 1.86889L4.97803 1.44963C4.99575 1.39533 5.07119 1.39533 5.08898 1.44963Z" fill="#F5F5F5"/>
<path d="M5.08898 3.64279L5.22637 4.06204L5.66069 4.06541C5.71694 4.06591 5.74021 4.13888 5.695 4.17287L5.34562 4.43544L5.47668 4.85678C5.4937 4.9113 5.4326 4.95651 5.38682 4.92317L5.0335 4.66618L4.68018 4.92317C4.63441 4.95644 4.57345 4.9113 4.59033 4.85678L4.72139 4.43544L4.37201 4.17287C4.32679 4.13881 4.35007 4.06591 4.40632 4.06541L4.84064 4.06204L4.97803 3.64279C4.99575 3.58855 5.07119 3.58855 5.08898 3.64279Z" fill="#F5F5F5"/>
<path d="M5.08898 5.83596L5.22637 6.25522L5.66069 6.25859C5.71694 6.25909 5.74021 6.33206 5.695 6.36605L5.34562 6.62862L5.47668 7.04996C5.4937 7.10448 5.4326 7.14969 5.38682 7.11635L5.0335 6.85936L4.68018 7.11635C4.63441 7.14962 4.57345 7.10448 4.59033 7.04996L4.72139 6.62862L4.37201 6.36605C4.32679 6.33199 4.35007 6.25909 4.40632 6.25859L4.84064 6.25522L4.97803 5.83596C4.99575 5.78173 5.07119 5.78173 5.08898 5.83596Z" fill="#F5F5F5"/>
<path d="M5.08898 8.02919L5.22637 8.44845L5.66069 8.45181C5.71694 8.45231 5.74021 8.52529 5.695 8.55928L5.34562 8.82185L5.47668 9.24318C5.4937 9.2977 5.4326 9.34292 5.38682 9.30958L5.0335 9.05258L4.68018 9.30958C4.63441 9.34285 4.57345 9.2977 4.59033 9.24318L4.72139 8.82185L4.37201 8.55928C4.32679 8.52522 4.35007 8.45231 4.40632 8.45181L4.84064 8.44845L4.97803 8.02919C4.99575 7.97489 5.07119 7.97489 5.08898 8.02919Z" fill="#F5F5F5"/>
<path d="M5.08898 10.2224L5.22637 10.6416L5.66069 10.645C5.71694 10.6455 5.74021 10.7185 5.695 10.7524L5.34562 11.015L5.47668 11.4364C5.4937 11.4909 5.4326 11.5361 5.38682 11.5027L5.0335 11.2458L4.68018 11.5027C4.63441 11.536 4.57345 11.4909 4.59033 11.4364L4.72139 11.015L4.37201 10.7524C4.32679 10.7184 4.35007 10.6455 4.40632 10.645L4.84064 10.6416L4.97803 10.2224C4.99575 10.168 5.07119 10.168 5.08898 10.2224Z" fill="#F5F5F5"/>
<path d="M6.76196 2.5249L6.89935 2.94416L7.33367 2.94752C7.38992 2.94802 7.41319 3.021 7.36798 3.05498L7.0186 3.31755L7.14966 3.73889C7.16667 3.7934 7.10557 3.83862 7.0598 3.80528L6.70648 3.54829L6.35316 3.80528C6.30739 3.83855 6.24642 3.7934 6.2633 3.73889L6.39436 3.31755L6.04498 3.05498C5.99977 3.02092 6.02304 2.94802 6.07929 2.94752L6.51361 2.94416L6.651 2.5249C6.66865 2.47066 6.74417 2.47066 6.76196 2.5249Z" fill="#F5F5F5"/>
<path d="M6.76196 4.71816L6.89935 5.13741L7.33367 5.14078C7.38992 5.14128 7.41319 5.21425 7.36798 5.24824L7.0186 5.51081L7.14966 5.93214C7.16667 5.98666 7.10557 6.03188 7.0598 5.99854L6.70648 5.74155L6.35316 5.99854C6.30739 6.03181 6.24642 5.98673 6.2633 5.93214L6.39436 5.51081L6.04498 5.24824C5.99977 5.21418 6.02304 5.14128 6.07929 5.14078L6.51361 5.13741L6.651 4.71816C6.66865 4.66385 6.74417 4.66385 6.76196 4.71816Z" fill="#F5F5F5"/>
<path d="M6.76196 6.9113L6.89935 7.33056L7.33367 7.33392C7.38992 7.33443 7.41319 7.4074 7.36798 7.44139L7.0186 7.70396L7.14966 8.12529C7.16667 8.17981 7.10557 8.22503 7.0598 8.19169L6.70648 7.9347L6.35316 8.19169C6.30739 8.22496 6.24642 8.17981 6.2633 8.12529L6.39436 7.70396L6.04498 7.44139C5.99977 7.40733 6.02304 7.33443 6.07929 7.33392L6.51361 7.33056L6.651 6.9113C6.66865 6.857 6.74417 6.857 6.76196 6.9113Z" fill="#F5F5F5"/>
<path d="M6.76196 9.10449L6.89935 9.52375L7.33367 9.52711C7.38992 9.52761 7.41319 9.60059 7.36798 9.63457L7.0186 9.89714L7.14966 10.3185C7.16667 10.373 7.10557 10.4182 7.0598 10.3849L6.70648 10.1279L6.35316 10.3849C6.30739 10.4181 6.24642 10.373 6.2633 10.3185L6.39436 9.89714L6.04498 9.63457C5.99977 9.60051 6.02304 9.52761 6.07929 9.52711L6.51361 9.52375L6.651 9.10449C6.66865 9.05025 6.74417 9.05025 6.76196 9.10449Z" fill="#F5F5F5"/>
<path d="M8.43488 1.44963L8.57227 1.86889L9.00659 1.87225C9.06284 1.87275 9.08611 1.94573 9.0409 1.97971L8.69152 2.24229L8.82258 2.66362C8.83959 2.71814 8.77849 2.76336 8.73272 2.73002L8.37933 2.47302L8.02601 2.73002C7.98024 2.76328 7.91928 2.71814 7.93615 2.66362L8.06721 2.24229L7.71783 1.97971C7.67262 1.94566 7.69589 1.87275 7.75214 1.87225L8.18646 1.86889L8.32385 1.44963C8.34164 1.39533 8.41709 1.39533 8.43488 1.44963Z" fill="#F5F5F5"/>
<path d="M8.43488 3.64279L8.57227 4.06204L9.00659 4.06541C9.06284 4.06591 9.08611 4.13888 9.0409 4.17287L8.69152 4.43544L8.82258 4.85678C8.83959 4.9113 8.77849 4.95651 8.73272 4.92317L8.37933 4.66618L8.02601 4.92317C7.98024 4.95644 7.91928 4.9113 7.93615 4.85678L8.06721 4.43544L7.71783 4.17287C7.67262 4.13881 7.69589 4.06591 7.75214 4.06541L8.18646 4.06204L8.32385 3.64279C8.34164 3.58855 8.41709 3.58855 8.43488 3.64279Z" fill="#F5F5F5"/>
<path d="M8.43488 5.83596L8.57227 6.25522L9.00659 6.25859C9.06284 6.25909 9.08611 6.33206 9.0409 6.36605L8.69152 6.62862L8.82258 7.04996C8.83959 7.10448 8.77849 7.14969 8.73272 7.11635L8.37933 6.85936L8.02601 7.11635C7.98024 7.14962 7.91928 7.10448 7.93615 7.04996L8.06721 6.62862L7.71783 6.36605C7.67262 6.33199 7.69589 6.25909 7.75214 6.25859L8.18646 6.25522L8.32385 5.83596C8.34164 5.78173 8.41709 5.78173 8.43488 5.83596Z" fill="#F5F5F5"/>
<path d="M8.43488 8.02919L8.57227 8.44845L9.00659 8.45181C9.06284 8.45231 9.08611 8.52529 9.0409 8.55928L8.69152 8.82185L8.82258 9.24318C8.83959 9.2977 8.77849 9.34292 8.73272 9.30958L8.37933 9.05258L8.02601 9.30958C7.98024 9.34285 7.91928 9.2977 7.93615 9.24318L8.06721 8.82185L7.71783 8.55928C7.67262 8.52522 7.69589 8.45231 7.75214 8.45181L8.18646 8.44845L8.32385 8.02919C8.34164 7.97489 8.41709 7.97489 8.43488 8.02919Z" fill="#F5F5F5"/>
<path d="M8.43488 10.2224L8.57227 10.6416L9.00659 10.645C9.06284 10.6455 9.08611 10.7185 9.0409 10.7524L8.69152 11.015L8.82258 11.4364C8.83959 11.4909 8.77849 11.5361 8.73272 11.5027L8.37933 11.2458L8.02601 11.5027C7.98024 11.536 7.91928 11.4909 7.93615 11.4364L8.06721 11.015L7.71783 10.7524C7.67262 10.7184 7.69589 10.6455 7.75214 10.645L8.18646 10.6416L8.32385 10.2224C8.34164 10.168 8.41709 10.168 8.43488 10.2224Z" fill="#F5F5F5"/>
<path d="M10.1078 2.5249L10.2452 2.94416L10.6795 2.94752C10.7357 2.94802 10.759 3.021 10.7138 3.05498L10.3644 3.31755L10.4955 3.73889C10.5125 3.7934 10.4514 3.83862 10.4056 3.80528L10.0523 3.54829L9.69898 3.80528C9.65321 3.83855 9.59225 3.7934 9.60912 3.73889L9.74019 3.31755L9.3908 3.05498C9.34559 3.02092 9.36887 2.94802 9.42512 2.94752L9.85944 2.94416L9.99683 2.5249C10.0146 2.47066 10.09 2.47066 10.1078 2.5249Z" fill="#F5F5F5"/>
<path d="M10.1078 4.71816L10.2452 5.13741L10.6795 5.14078C10.7357 5.14128 10.759 5.21425 10.7138 5.24824L10.3644 5.51081L10.4955 5.93214C10.5125 5.98666 10.4514 6.03188 10.4056 5.99854L10.0523 5.74155L9.69898 5.99854C9.65321 6.03181 9.59225 5.98673 9.60912 5.93214L9.74019 5.51081L9.3908 5.24824C9.34559 5.21418 9.36887 5.14128 9.42512 5.14078L9.85944 5.13741L9.99683 4.71816C10.0146 4.66385 10.09 4.66385 10.1078 4.71816Z" fill="#F5F5F5"/>
<path d="M10.1078 6.9113L10.2452 7.33056L10.6795 7.33392C10.7357 7.33443 10.759 7.4074 10.7138 7.44139L10.3644 7.70396L10.4955 8.12529C10.5125 8.17981 10.4514 8.22503 10.4056 8.19169L10.0523 7.9347L9.69898 8.19169C9.65321 8.22496 9.59225 8.17981 9.60912 8.12529L9.74019 7.70396L9.3908 7.44139C9.34559 7.40733 9.36887 7.33443 9.42512 7.33392L9.85944 7.33056L9.99683 6.9113C10.0146 6.857 10.09 6.857 10.1078 6.9113Z" fill="#F5F5F5"/>
<path d="M10.1078 9.10449L10.2452 9.52375L10.6795 9.52711C10.7357 9.52761 10.759 9.60059 10.7138 9.63457L10.3644 9.89714L10.4955 10.3185C10.5125 10.373 10.4514 10.4182 10.4056 10.3849L10.0523 10.1279L9.69898 10.3849C9.65321 10.4181 9.59225 10.373 9.60912 10.3185L9.74019 9.89714L9.3908 9.63457C9.34559 9.60051 9.36887 9.52761 9.42512 9.52711L9.85944 9.52375L9.99683 9.10449C10.0146 9.05025 10.09 9.05025 10.1078 9.10449Z" fill="#F5F5F5"/>
<path d="M11.7809 1.44963L11.9183 1.86889L12.3526 1.87225C12.4088 1.87275 12.4321 1.94573 12.3869 1.97971L12.0375 2.24229L12.1686 2.66362C12.1856 2.71814 12.1245 2.76336 12.0787 2.73002L11.7254 2.47302L11.3721 2.73002C11.3263 2.76328 11.2653 2.71814 11.2822 2.66362L11.4133 2.24229L11.0639 1.97971C11.0187 1.94566 11.042 1.87275 11.0982 1.87225L11.5325 1.86889L11.6699 1.44963C11.6876 1.39533 11.7631 1.39533 11.7809 1.44963Z" fill="#F5F5F5"/>
<path d="M11.7809 3.64279L11.9183 4.06204L12.3526 4.06541C12.4088 4.06591 12.4321 4.13888 12.3869 4.17287L12.0375 4.43544L12.1686 4.85678C12.1856 4.9113 12.1245 4.95651 12.0787 4.92317L11.7254 4.66618L11.3721 4.92317C11.3263 4.95644 11.2653 4.9113 11.2822 4.85678L11.4133 4.43544L11.0639 4.17287C11.0187 4.13881 11.042 4.06591 11.0982 4.06541L11.5325 4.06204L11.6699 3.64279C11.6876 3.58855 11.7631 3.58855 11.7809 3.64279Z" fill="#F5F5F5"/>
<path d="M11.7809 5.83596L11.9183 6.25522L12.3526 6.25859C12.4088 6.25909 12.4321 6.33206 12.3869 6.36605L12.0375 6.62862L12.1686 7.04996C12.1856 7.10448 12.1245 7.14969 12.0787 7.11635L11.7254 6.85936L11.3721 7.11635C11.3263 7.14962 11.2653 7.10448 11.2822 7.04996L11.4133 6.62862L11.0639 6.36605C11.0187 6.33199 11.042 6.25909 11.0982 6.25859L11.5325 6.25522L11.6699 5.83596C11.6876 5.78173 11.7631 5.78173 11.7809 5.83596Z" fill="#F5F5F5"/>
<path d="M11.7809 8.02919L11.9183 8.44845L12.3526 8.45181C12.4088 8.45231 12.4321 8.52529 12.3869 8.55928L12.0375 8.82185L12.1686 9.24318C12.1856 9.2977 12.1245 9.34292 12.0787 9.30958L11.7254 9.05258L11.3721 9.30958C11.3263 9.34285 11.2653 9.2977 11.2822 9.24318L11.4133 8.82185L11.0639 8.55928C11.0187 8.52522 11.042 8.45231 11.0982 8.45181L11.5325 8.44845L11.6699 8.02919C11.6876 7.97489 11.7631 7.97489 11.7809 8.02919Z" fill="#F5F5F5"/>
<path d="M11.7809 10.2224L11.9183 10.6416L12.3526 10.645C12.4088 10.6455 12.4321 10.7185 12.3869 10.7524L12.0375 11.015L12.1686 11.4364C12.1856 11.4909 12.1245 11.5361 12.0787 11.5027L11.7254 11.2458L11.3721 11.5027C11.3263 11.536 11.2653 11.4909 11.2822 11.4364L11.4133 11.015L11.0639 10.7524C11.0187 10.7184 11.042 10.6455 11.0982 10.645L11.5325 10.6416L11.6699 10.2224C11.6876 10.168 11.7631 10.168 11.7809 10.2224Z" fill="#F5F5F5"/>
<path d="M13.4537 2.5249L13.5911 2.94416L14.0254 2.94752C14.0817 2.94802 14.105 3.021 14.0597 3.05498L13.7104 3.31755L13.8414 3.73889C13.8584 3.7934 13.7973 3.83862 13.7516 3.80528L13.3982 3.54829L13.0449 3.80528C12.9992 3.83855 12.9382 3.7934 12.9551 3.73889L13.0861 3.31755L12.7368 3.05498C12.6915 3.02092 12.7148 2.94802 12.7711 2.94752L13.2054 2.94416L13.3428 2.5249C13.3605 2.47066 13.436 2.47066 13.4537 2.5249Z" fill="#F5F5F5"/>
<path d="M13.4537 4.71816L13.5911 5.13741L14.0254 5.14078C14.0817 5.14128 14.105 5.21425 14.0597 5.24824L13.7104 5.51081L13.8414 5.93214C13.8584 5.98666 13.7973 6.03188 13.7516 5.99854L13.3982 5.74155L13.0449 5.99854C12.9992 6.03181 12.9382 5.98673 12.9551 5.93214L13.0861 5.51081L12.7368 5.24824C12.6915 5.21418 12.7148 5.14128 12.7711 5.14078L13.2054 5.13741L13.3428 4.71816C13.3605 4.66385 13.436 4.66385 13.4537 4.71816Z" fill="#F5F5F5"/>
<path d="M13.4537 6.9113L13.5911 7.33056L14.0254 7.33392C14.0817 7.33443 14.105 7.4074 14.0597 7.44139L13.7104 7.70396L13.8414 8.12529C13.8584 8.17981 13.7973 8.22503 13.7516 8.19169L13.3982 7.9347L13.0449 8.19169C12.9992 8.22496 12.9382 8.17981 12.9551 8.12529L13.0861 7.70396L12.7368 7.44139C12.6915 7.40733 12.7148 7.33443 12.7711 7.33392L13.2054 7.33056L13.3428 6.9113C13.3605 6.857 13.436 6.857 13.4537 6.9113Z" fill="#F5F5F5"/>
<path d="M13.4537 9.10449L13.5911 9.52375L14.0254 9.52711C14.0817 9.52761 14.105 9.60059 14.0597 9.63457L13.7104 9.89714L13.8414 10.3185C13.8584 10.373 13.7973 10.4182 13.7516 10.3849L13.3982 10.1279L13.0449 10.3849C12.9992 10.4181 12.9382 10.373 12.9551 10.3185L13.0861 9.89714L12.7368 9.63457C12.6915 9.60051 12.7148 9.52761 12.7711 9.52711L13.2054 9.52375L13.3428 9.10449C13.3605 9.05025 13.436 9.05025 13.4537 9.10449Z" fill="#F5F5F5"/>
<path d="M15.1268 1.44963L15.2642 1.86889L15.6985 1.87225C15.7548 1.87275 15.7781 1.94573 15.7328 1.97971L15.3835 2.24229L15.5145 2.66362C15.5315 2.71814 15.4704 2.76336 15.4247 2.73002L15.0713 2.47302L14.718 2.73002C14.6723 2.76328 14.6113 2.71814 14.6282 2.66362L14.7592 2.24229L14.4098 1.97971C14.3646 1.94566 14.3879 1.87275 14.4442 1.87225L14.8785 1.86889L15.0159 1.44963C15.0336 1.39533 15.109 1.39533 15.1268 1.44963Z" fill="#F5F5F5"/>
<path d="M15.1268 3.64279L15.2642 4.06204L15.6985 4.06541C15.7548 4.06591 15.7781 4.13888 15.7328 4.17287L15.3835 4.43544L15.5145 4.85678C15.5315 4.9113 15.4704 4.95651 15.4247 4.92317L15.0713 4.66618L14.718 4.92317C14.6723 4.95644 14.6113 4.9113 14.6282 4.85678L14.7592 4.43544L14.4098 4.17287C14.3646 4.13881 14.3879 4.06591 14.4442 4.06541L14.8785 4.06204L15.0159 3.64279C15.0336 3.58855 15.109 3.58855 15.1268 3.64279Z" fill="#F5F5F5"/>
<path d="M15.1268 5.83596L15.2642 6.25522L15.6985 6.25859C15.7548 6.25909 15.7781 6.33206 15.7328 6.36605L15.3835 6.62862L15.5145 7.04996C15.5315 7.10448 15.4704 7.14969 15.4247 7.11635L15.0713 6.85936L14.718 7.11635C14.6723 7.14962 14.6113 7.10448 14.6282 7.04996L14.7592 6.62862L14.4098 6.36605C14.3646 6.33199 14.3879 6.25909 14.4442 6.25859L14.8785 6.25522L15.0159 5.83596C15.0336 5.78173 15.109 5.78173 15.1268 5.83596Z" fill="#F5F5F5"/>
<path d="M15.1268 8.02919L15.2642 8.44845L15.6985 8.45181C15.7548 8.45231 15.7781 8.52529 15.7328 8.55928L15.3835 8.82185L15.5145 9.24318C15.5315 9.2977 15.4704 9.34292 15.4247 9.30958L15.0713 9.05258L14.718 9.30958C14.6723 9.34285 14.6113 9.2977 14.6282 9.24318L14.7592 8.82185L14.4098 8.55928C14.3646 8.52522 14.3879 8.45231 14.4442 8.45181L14.8785 8.44845L15.0159 8.02919C15.0336 7.97489 15.109 7.97489 15.1268 8.02919Z" fill="#F5F5F5"/>
<path d="M15.1268 10.2224L15.2642 10.6416L15.6985 10.645C15.7548 10.6455 15.7781 10.7185 15.7328 10.7524L15.3835 11.015L15.5145 11.4364C15.5315 11.4909 15.4704 11.5361 15.4247 11.5027L15.0713 11.2458L14.718 11.5027C14.6723 11.536 14.6113 11.4909 14.6282 11.4364L14.7592 11.015L14.4098 10.7524C14.3646 10.7184 14.3879 10.6455 14.4442 10.645L14.8785 10.6416L15.0159 10.2224C15.0336 10.168 15.109 10.168 15.1268 10.2224Z" fill="#F5F5F5"/>
</svg>
