<svg width="194" height="194" viewBox="0 0 194 194" fill="none" xmlns="http://www.w3.org/2000/svg">
<g clip-path="url(#clip0)">
<path d="M140.408 59.796C128.993 59.796 119.738 69.0504 119.738 80.4658C119.738 91.8812 128.993 101.136 140.408 101.136C151.823 101.136 161.078 91.8812 161.078 80.4658V80.4654C161.077 74.7609 146.113 59.796 140.408 59.796ZM136.276 92.8673C133.993 92.8673 132.142 91.0164 132.142 88.7333C132.142 86.4502 133.993 84.5993 136.276 84.5993C138.559 84.5993 140.41 86.4502 140.41 88.7333C140.403 91.0132 138.556 92.8601 136.276 92.8673ZM144.544 82.5324C139.978 82.5324 136.276 78.8306 136.276 74.2645C136.276 69.6983 139.978 65.9965 144.544 65.9965C149.11 65.9965 152.812 69.6983 152.812 74.2645C152.813 78.8294 149.114 82.5312 144.549 82.5324C144.546 82.5324 144.544 82.5324 144.542 82.5324H144.544Z" fill="url(#paint0_linear)"/>
<path d="M74.2656 80.4654C74.2612 69.0516 65.0096 59.8 53.5958 59.796C47.5396 59.796 32.926 75.1121 32.926 80.4654C32.926 91.8808 42.1804 101.135 53.5958 101.135C65.0112 101.135 74.2656 91.8808 74.2656 80.4654ZM57.7298 65.9969C62.2959 65.9969 65.9977 69.6987 65.9977 74.2649C65.9977 78.831 62.2959 82.5328 57.7298 82.5328C53.1636 82.5328 49.4618 78.831 49.4618 74.2649V74.2645C49.4607 69.6995 53.1604 65.9981 57.7254 65.9969C57.727 65.9969 57.7286 65.9969 57.7298 65.9969ZM49.4618 92.8672C47.1788 92.8672 45.3279 91.0164 45.3279 88.7333C45.3279 86.4502 47.1788 84.5993 49.4618 84.5993C51.7449 84.5993 53.5958 86.4502 53.5958 88.7333C53.589 91.0132 51.7421 92.8601 49.4618 92.8672Z" fill="url(#paint1_linear)"/>
<path d="M97.002 0.00147207C43.432 -0.00131899 0.00279116 43.4235 1.04977e-07 96.9935C-0.00119606 122.723 10.2201 147.398 28.4146 165.59C66.2948 203.47 127.71 203.47 165.59 165.59C203.47 127.709 203.47 66.2939 165.589 28.414C147.439 10.1633 122.742 -0.0679056 97.002 0.00147207ZM97.002 186.028C47.9129 186.028 7.97604 146.091 7.97604 97.0019C7.97604 47.9128 47.9129 7.97592 97.002 7.97592C146.091 7.97592 186.028 47.9128 186.028 97.0019C186.028 146.091 146.091 186.028 97.002 186.028Z" fill="url(#paint2_linear)"/>
<path d="M123.121 119.33C106.819 111.036 87.5359 111.032 71.2313 119.32C63.477 123.29 56.725 128.968 51.4834 135.926L57.8578 140.718C72.2122 121.622 98.2105 115.598 119.5 126.436C126.174 129.85 131.986 134.734 136.498 140.721L142.868 135.923C137.626 128.968 130.874 123.295 123.121 119.33Z" fill="url(#paint3_linear)"/>
<path d="M146.832 46.1972L142.252 52.7251L143.413 53.5405C151.826 59.5679 159.14 66.9973 165.036 75.5033L171.59 70.9606C165.171 61.6991 157.207 53.6106 148.046 47.0493L146.832 46.1972Z" fill="url(#paint4_linear)"/>
<path d="M51.7746 52.7382L47.232 46.184C37.9541 52.6051 29.8561 60.5823 23.2963 69.7629L22.4697 70.9407L28.9972 75.5212L29.803 74.3729C35.8261 65.9495 43.2591 58.6302 51.7746 52.7382Z" fill="url(#paint5_linear)"/>
</g>
<defs>
<linearGradient id="paint0_linear" x1="140.408" y1="-2.67959" x2="140.408" y2="188.707" gradientUnits="userSpaceOnUse">
<stop stop-color="#FC76B3"/>
<stop offset="1" stop-color="#FACD68"/>
</linearGradient>
<linearGradient id="paint1_linear" x1="53.5959" y1="-2.67956" x2="53.5959" y2="188.707" gradientUnits="userSpaceOnUse">
<stop stop-color="#FC76B3"/>
<stop offset="1" stop-color="#FACD68"/>
</linearGradient>
<linearGradient id="paint2_linear" x1="97" y1="-2.6789" x2="97" y2="188.708" gradientUnits="userSpaceOnUse">
<stop stop-color="#FC76B3"/>
<stop offset="1" stop-color="#FACD68"/>
</linearGradient>
<linearGradient id="paint3_linear" x1="97.1757" y1="-2.67954" x2="97.1757" y2="188.707" gradientUnits="userSpaceOnUse">
<stop stop-color="#FC76B3"/>
<stop offset="1" stop-color="#FACD68"/>
</linearGradient>
<linearGradient id="paint4_linear" x1="156.921" y1="-2.67958" x2="156.921" y2="188.707" gradientUnits="userSpaceOnUse">
<stop stop-color="#FC76B3"/>
<stop offset="1" stop-color="#FACD68"/>
</linearGradient>
<linearGradient id="paint5_linear" x1="37.1223" y1="-2.67959" x2="37.1223" y2="188.707" gradientUnits="userSpaceOnUse">
<stop stop-color="#FC76B3"/>
<stop offset="1" stop-color="#FACD68"/>
</linearGradient>
<clipPath id="clip0">
<rect width="194" height="194" fill="white"/>
</clipPath>
</defs>
</svg>
