<svg width="53" height="53" viewBox="0 0 53 53" fill="none" xmlns="http://www.w3.org/2000/svg">
<path d="M50.9347 15.8478L47.2031 13.6641V5.79688C47.2031 5.57725 47.1159 5.36662 46.9606 5.21131C46.8053 5.05601 46.5946 4.96876 46.375 4.96876H39.75C39.5304 4.96876 39.3197 5.05601 39.1644 5.21131C39.0091 5.36662 38.9219 5.57725 38.9219 5.79688V8.80629L26.919 1.76723C26.7918 1.69318 26.6472 1.65417 26.5 1.65417C26.3528 1.65417 26.2082 1.69318 26.081 1.76723L2.06535 15.8454C1.94039 15.9187 1.83684 16.0235 1.76505 16.1493C1.69327 16.2752 1.65575 16.4176 1.65625 16.5625V21.5313C1.65619 21.6771 1.69466 21.8205 1.76778 21.9467C1.8409 22.0729 1.94606 22.1776 2.07264 22.2502C2.19922 22.3227 2.34271 22.3605 2.4886 22.3598C2.63448 22.359 2.77758 22.3198 2.90341 22.2459L26.5 8.41293L50.085 22.2426C50.215 22.3206 50.3641 22.361 50.5156 22.3594C50.7353 22.3594 50.9459 22.2721 51.1012 22.1168C51.2565 21.9615 51.3438 21.7509 51.3438 21.5313V16.5625C51.3438 16.4181 51.3061 16.2761 51.2343 16.1507C51.1626 16.0254 51.0593 15.9209 50.9347 15.8478ZM40.5781 6.62501H45.5469V12.6894L40.5781 9.77685V6.62501ZM49.6875 20.0854L26.919 6.73846C26.792 6.66392 26.6473 6.62462 26.5 6.62462C26.3527 6.62462 26.208 6.66392 26.081 6.73846L3.3125 20.0854V17.037L26.5 3.44418L49.6875 17.037V20.0854Z" fill="white"/>
<path d="M32.2969 24.0156V17.3906C32.2969 17.171 32.2096 16.9604 32.0543 16.8051C31.899 16.6497 31.6884 16.5625 31.4688 16.5625H21.5313C21.3116 16.5625 21.101 16.6497 20.9457 16.8051C20.7904 16.9604 20.7031 17.171 20.7031 17.3906V24.0156C20.7031 24.2353 20.7904 24.4459 20.9457 24.6012C21.101 24.7565 21.3116 24.8438 21.5313 24.8438H31.4688C31.6884 24.8438 31.899 24.7565 32.0543 24.6012C32.2096 24.4459 32.2969 24.2353 32.2969 24.0156ZM30.6406 19.875H27.3281V18.2188H30.6406V19.875ZM25.6719 18.2188V19.875H22.3594V18.2188H25.6719ZM22.3594 21.5312H25.6719V23.1875H22.3594V21.5312ZM30.6406 23.1875H27.3281V21.5312H30.6406V23.1875Z" fill="white"/>
<path d="M14.9062 38.0938H13.25V41.4062H14.9062V38.0938Z" fill="white"/>
<path d="M48.8594 30.4005V23.1875C48.86 23.0416 48.822 22.8981 48.7493 22.7716C48.6766 22.6451 48.5717 22.54 48.4453 22.4671L26.9141 10.0452C26.7871 9.97588 26.6447 9.93958 26.5 9.93958C26.3553 9.93958 26.213 9.97588 26.0859 10.0452L4.55469 22.4671C4.42832 22.54 4.32347 22.6451 4.25075 22.7716C4.17804 22.8981 4.14005 23.0416 4.14063 23.1875V50.5156C4.14063 50.7353 4.22788 50.9459 4.38318 51.1012C4.53849 51.2565 4.74912 51.3438 4.96876 51.3438H48.0313C48.2509 51.3438 48.4615 51.2565 48.6168 51.1012C48.7721 50.9459 48.8594 50.7353 48.8594 50.5156V45.7871C50.4746 43.547 51.3438 40.8554 51.3438 38.0938C51.3438 35.3321 50.4746 32.6405 48.8594 30.4005ZM21.5313 49.6875H11.5938V33.125H21.5313V49.6875ZM23.1875 49.6875V32.2969C23.1875 32.0773 23.1003 31.8666 22.945 31.7113C22.7897 31.556 22.579 31.4688 22.3594 31.4688H10.7656C10.546 31.4688 10.3354 31.556 10.1801 31.7113C10.0248 31.8666 9.93751 32.0773 9.93751 32.2969V49.6875H5.79688V23.6678L26.5 11.718L47.2031 23.6678V28.4958C45.8393 27.1998 44.2149 26.2094 42.4383 25.5905C40.6616 24.9717 38.7734 24.7386 36.8996 24.9068C35.0257 25.075 33.2092 25.6407 31.5712 26.5661C29.9332 27.4915 28.5112 28.7554 27.4 30.2736C26.2888 31.7917 25.5139 33.5293 25.127 35.3705C24.7401 37.2116 24.7501 39.1141 25.1563 40.9511C25.5624 42.7882 26.3555 44.5175 27.4825 46.0239C28.6095 47.5304 30.0447 48.7793 31.6924 49.6875H23.1875ZM47.2031 49.6875H44.4952C45.4782 49.1389 46.3881 48.4683 47.2031 47.6917V49.6875ZM38.0938 49.6875C35.8007 49.6875 33.5592 49.0076 31.6526 47.7336C29.746 46.4597 28.26 44.649 27.3825 42.5305C26.505 40.412 26.2754 38.0809 26.7228 35.8319C27.1701 33.583 28.2743 31.5172 29.8957 29.8958C31.5172 28.2743 33.583 27.1701 35.8319 26.7228C38.0809 26.2754 40.412 26.505 42.5305 27.3825C44.649 28.26 46.4597 29.746 47.7336 31.6526C49.0075 33.5592 49.6875 35.8007 49.6875 38.0938C49.6842 41.1676 48.4617 44.1146 46.2881 46.2882C44.1146 48.4617 41.1676 49.6842 38.0938 49.6875Z" fill="white"/>
<path d="M43.3051 30.8833L35.5481 38.6403L31.9872 35.7907C31.9005 35.7213 31.8008 35.67 31.6939 35.6398C31.587 35.6097 31.4751 35.6014 31.3649 35.6154C31.2548 35.6294 31.1485 35.6654 31.0525 35.7212C30.9566 35.7771 30.8728 35.8517 30.8063 35.9406L28.3219 39.2531C28.1967 39.4201 28.1391 39.6282 28.1608 39.8358C28.1824 40.0434 28.2817 40.2352 28.4386 40.3728L35.0636 46.1696C35.2217 46.3081 35.4266 46.3813 35.6366 46.3744C35.8467 46.3675 36.0462 46.281 36.1949 46.1324L47.3745 34.9527C47.5298 34.7974 47.617 34.5868 47.617 34.3672C47.617 34.1476 47.5298 33.937 47.3745 33.7817L44.4761 30.8833C44.3208 30.728 44.1102 30.6408 43.8906 30.6408C43.671 30.6408 43.4604 30.728 43.3051 30.8833ZM35.5721 44.4132L30.1065 39.6324L31.6178 37.6176L35.091 40.3968C35.2501 40.5241 35.4507 40.5883 35.6542 40.577C35.8577 40.5656 36.0499 40.4797 36.194 40.3355L43.8906 32.6397L45.6181 34.3672L35.5721 44.4132Z" fill="white"/>
</svg>
