<svg width="13" height="13" viewBox="0 0 13 13" fill="none" xmlns="http://www.w3.org/2000/svg">
<path d="M6.49097 0C3.86384 0 1.72656 2.13728 1.72656 4.76441C1.72656 5.97126 2.48699 7.6764 3.98682 9.83252C5.08308 11.4086 6.16129 12.6283 6.20672 12.6794L6.49097 13L6.77533 12.6794C6.82066 12.6283 7.89886 11.4086 8.99522 9.83252C10.495 7.6764 11.2555 5.97126 11.2555 4.76441C11.2555 2.13728 9.11811 0 6.49097 0ZM8.37543 9.39235C7.63445 10.4584 6.88552 11.3758 6.49097 11.8438C6.09742 11.3771 5.35127 10.4631 4.61078 9.3985C3.22114 7.40077 2.4866 5.79829 2.4866 4.76441C2.4866 2.55642 4.28298 0.760033 6.49097 0.760033C8.69907 0.760033 10.4954 2.55642 10.4954 4.76441C10.4954 5.7972 9.7623 7.3975 8.37543 9.39235Z" fill="url(#paint0_linear)"/>
<path d="M6.49097 1.76088C4.94046 1.76088 3.67906 3.02228 3.67906 4.57279C3.67906 6.12331 4.94046 7.3848 6.49097 7.3848C8.04159 7.3848 9.30299 6.12331 9.30299 4.57279C9.30299 3.02228 8.04159 1.76088 6.49097 1.76088ZM6.49097 6.62477C5.3596 6.62477 4.43909 5.70426 4.43909 4.57279C4.43909 3.44142 5.3596 2.52091 6.49097 2.52091C7.62244 2.52091 8.54295 3.44142 8.54295 4.57279C8.54295 5.70426 7.62244 6.62477 6.49097 6.62477Z" fill="url(#paint1_linear)"/>
<defs>
<linearGradient id="paint0_linear" x1="6.49102" y1="0" x2="6.49102" y2="13" gradientUnits="userSpaceOnUse">
<stop stop-color="#FC76B3"/>
<stop offset="1" stop-color="#FACD68"/>
</linearGradient>
<linearGradient id="paint1_linear" x1="6.49102" y1="1.76088" x2="6.49102" y2="7.3848" gradientUnits="userSpaceOnUse">
<stop stop-color="#FC76B3"/>
<stop offset="1" stop-color="#FACD68"/>
</linearGradient>
</defs>
</svg>
