<svg width="42" height="42" viewBox="0 0 42 42" fill="none" xmlns="http://www.w3.org/2000/svg">
<path d="M21 0C9.42055 0 0 9.42055 0 21C0 32.5794 9.42055 42 21 42C32.5794 42 42 32.5794 42 21C42 9.42055 32.5794 0 21 0ZM21 39.5391C10.7775 39.5391 2.46094 31.2225 2.46094 21C2.46094 10.7775 10.7775 2.46094 21 2.46094C31.2225 2.46094 39.5391 10.7775 39.5391 21C39.5391 31.2225 31.2225 39.5391 21 39.5391Z" fill="url(#paint0_linear)"/>
<path d="M21 22.1484C25.7494 22.1484 29.6133 18.2845 29.6133 13.5352C29.6133 8.78579 25.7494 4.92188 21 4.92188C16.2506 4.92188 12.3867 8.78579 12.3867 13.5352C12.3867 18.2845 16.2506 22.1484 21 22.1484ZM21 7.38281C24.3924 7.38281 27.1523 10.1428 27.1523 13.5352C27.1523 16.9276 24.3924 19.6875 21 19.6875C17.6076 19.6875 14.8477 16.9276 14.8477 13.5352C14.8477 10.1428 17.6076 7.38281 21 7.38281Z" fill="url(#paint1_linear)"/>
<path d="M34.8345 27.5168C33.1994 25.6691 30.8478 24.6094 28.3828 24.6094H13.6172C11.1522 24.6094 8.80065 25.6691 7.16552 27.5168L6.58228 28.1759L7.01753 28.9409C9.87362 33.9601 15.2314 37.0781 21 37.0781C26.7686 37.0781 32.1264 33.9601 34.9826 28.9408L35.4178 28.1758L34.8345 27.5168ZM21 34.6172C16.4279 34.6172 12.1602 32.3042 9.64828 28.5227C10.7518 27.5915 12.1567 27.0703 13.6172 27.0703H28.3828C29.8433 27.0703 31.2483 27.5915 32.3517 28.5227C29.8398 32.3042 25.5721 34.6172 21 34.6172Z" fill="url(#paint2_linear)"/>
<defs>
<linearGradient id="paint0_linear" x1="21" y1="0" x2="21" y2="42" gradientUnits="userSpaceOnUse">
<stop stop-color="#FACD68"/>
<stop offset="1" stop-color="#FC76B3"/>
</linearGradient>
<linearGradient id="paint1_linear" x1="21" y1="4.92188" x2="21" y2="22.1484" gradientUnits="userSpaceOnUse">
<stop stop-color="#FACD68"/>
<stop offset="1" stop-color="#FC76B3"/>
</linearGradient>
<linearGradient id="paint2_linear" x1="21" y1="24.6094" x2="21" y2="37.0781" gradientUnits="userSpaceOnUse">
<stop stop-color="#FACD68"/>
<stop offset="1" stop-color="#FC76B3"/>
</linearGradient>
</defs>
</svg>
